<mxfile host="app.diagrams.net" agent="Mozilla/5.0 (Windows NT 10.0; Win64; x64) AppleWebKit/537.36 (KHTML, like Gecko) Chrome/134.0.0.0 Safari/537.36" version="26.1.0">
  <diagram name="Trang-1" id="3mgkgobt0onoJBIAeLeT">
    <mxGraphModel dx="2140" dy="1822" grid="0" gridSize="10" guides="1" tooltips="1" connect="1" arrows="1" fold="1" page="1" pageScale="1" pageWidth="827" pageHeight="1169" math="0" shadow="0">
      <root>
        <mxCell id="0" />
        <mxCell id="1" parent="0" />
        <mxCell id="H4jBHMgdEXg4xku45v8j-1" value="Nhân viên" style="shape=umlActor;verticalLabelPosition=bottom;verticalAlign=top;html=1;outlineConnect=0;" vertex="1" parent="1">
          <mxGeometry x="-290" y="-80" width="30" height="60" as="geometry" />
        </mxCell>
        <mxCell id="H4jBHMgdEXg4xku45v8j-2" value="&lt;font style=&quot;font-size: 18px;&quot;&gt;Mua vé&lt;/font&gt;" style="ellipse;whiteSpace=wrap;html=1;" vertex="1" parent="1">
          <mxGeometry x="444" y="-260" width="120" height="80" as="geometry" />
        </mxCell>
        <mxCell id="H4jBHMgdEXg4xku45v8j-5" value="Hành khách" style="shape=umlActor;verticalLabelPosition=bottom;verticalAlign=top;html=1;outlineConnect=0;" vertex="1" parent="1">
          <mxGeometry x="1170" y="-60" width="30" height="60" as="geometry" />
        </mxCell>
        <mxCell id="H4jBHMgdEXg4xku45v8j-6" value="&lt;font style=&quot;font-size: 18px;&quot;&gt;Quản lý bán vé&lt;/font&gt;" style="ellipse;whiteSpace=wrap;html=1;" vertex="1" parent="1">
          <mxGeometry x="410" y="-90" width="190" height="80" as="geometry" />
        </mxCell>
        <mxCell id="H4jBHMgdEXg4xku45v8j-8" value="&lt;font style=&quot;font-size: 18px;&quot;&gt;Mua vé qua ứng dụng&lt;/font&gt;" style="ellipse;whiteSpace=wrap;html=1;" vertex="1" parent="1">
          <mxGeometry x="385" y="-430" width="240" height="80" as="geometry" />
        </mxCell>
        <mxCell id="H4jBHMgdEXg4xku45v8j-9" value="&lt;font style=&quot;font-size: 18px;&quot;&gt;Mua vé tại quầy&lt;/font&gt;" style="ellipse;whiteSpace=wrap;html=1;" vertex="1" parent="1">
          <mxGeometry x="50" y="-260" width="190" height="80" as="geometry" />
        </mxCell>
        <mxCell id="H4jBHMgdEXg4xku45v8j-14" value="&amp;lt;&amp;lt;Extend&lt;span style=&quot;background-color: light-dark(#ffffff, var(--ge-dark-color, #121212)); color: light-dark(rgb(0, 0, 0), rgb(255, 255, 255));&quot;&gt;&amp;gt;&amp;gt;&lt;/span&gt;" style="endArrow=open;endSize=12;dashed=1;html=1;rounded=0;exitX=0;exitY=0.5;exitDx=0;exitDy=0;entryX=1;entryY=0.5;entryDx=0;entryDy=0;" edge="1" parent="1" source="H4jBHMgdEXg4xku45v8j-2" target="H4jBHMgdEXg4xku45v8j-9">
          <mxGeometry width="160" relative="1" as="geometry">
            <mxPoint x="300" y="-250" as="sourcePoint" />
            <mxPoint x="250" y="-90" as="targetPoint" />
          </mxGeometry>
        </mxCell>
        <mxCell id="H4jBHMgdEXg4xku45v8j-18" value="&amp;lt;&amp;lt;Include&amp;gt;&amp;gt;" style="endArrow=open;startArrow=none;endFill=0;startFill=0;endSize=8;html=1;verticalAlign=bottom;dashed=1;labelBackgroundColor=none;rounded=0;exitX=0.5;exitY=1;exitDx=0;exitDy=0;entryX=0.5;entryY=0;entryDx=0;entryDy=0;" edge="1" parent="1" source="H4jBHMgdEXg4xku45v8j-2" target="H4jBHMgdEXg4xku45v8j-6">
          <mxGeometry width="160" relative="1" as="geometry">
            <mxPoint x="300" y="-80" as="sourcePoint" />
            <mxPoint x="370" y="-100" as="targetPoint" />
          </mxGeometry>
        </mxCell>
        <mxCell id="H4jBHMgdEXg4xku45v8j-19" value="&amp;lt;&amp;lt;Extend&amp;gt;&amp;gt;" style="endArrow=open;startArrow=none;endFill=0;startFill=0;endSize=8;html=1;verticalAlign=bottom;dashed=1;labelBackgroundColor=none;rounded=0;exitX=0.5;exitY=0;exitDx=0;exitDy=0;entryX=0.5;entryY=1;entryDx=0;entryDy=0;" edge="1" parent="1" source="H4jBHMgdEXg4xku45v8j-2" target="H4jBHMgdEXg4xku45v8j-8">
          <mxGeometry width="160" relative="1" as="geometry">
            <mxPoint x="550" y="-330" as="sourcePoint" />
            <mxPoint x="450" y="-320" as="targetPoint" />
          </mxGeometry>
        </mxCell>
        <mxCell id="H4jBHMgdEXg4xku45v8j-22" value="" style="endArrow=open;startArrow=none;endFill=0;startFill=0;endSize=8;html=1;verticalAlign=bottom;labelBackgroundColor=none;strokeWidth=1;rounded=0;exitX=0.25;exitY=0.1;exitDx=0;exitDy=0;exitPerimeter=0;entryX=1;entryY=0.5;entryDx=0;entryDy=0;" edge="1" parent="1" source="H4jBHMgdEXg4xku45v8j-5" target="H4jBHMgdEXg4xku45v8j-6">
          <mxGeometry width="160" relative="1" as="geometry">
            <mxPoint x="-140" y="90" as="sourcePoint" />
            <mxPoint x="420" y="-40" as="targetPoint" />
          </mxGeometry>
        </mxCell>
        <mxCell id="H4jBHMgdEXg4xku45v8j-23" value="&lt;font style=&quot;font-size: 18px;&quot;&gt;Kiểm soát vé&lt;/font&gt;" style="ellipse;whiteSpace=wrap;html=1;" vertex="1" parent="1">
          <mxGeometry x="409" y="120" width="190" height="80" as="geometry" />
        </mxCell>
        <mxCell id="H4jBHMgdEXg4xku45v8j-25" value="&amp;lt;&amp;lt;Extend&lt;span style=&quot;background-color: transparent; color: light-dark(rgb(0, 0, 0), rgb(255, 255, 255));&quot;&gt;&amp;gt;&amp;gt;&lt;/span&gt;" style="endArrow=open;startArrow=none;endFill=0;startFill=0;endSize=8;html=1;verticalAlign=bottom;dashed=1;labelBackgroundColor=none;rounded=0;exitX=0.5;exitY=1;exitDx=0;exitDy=0;entryX=0.5;entryY=0;entryDx=0;entryDy=0;" edge="1" parent="1" source="H4jBHMgdEXg4xku45v8j-6" target="H4jBHMgdEXg4xku45v8j-23">
          <mxGeometry width="160" relative="1" as="geometry">
            <mxPoint x="514" y="-170" as="sourcePoint" />
            <mxPoint x="515" y="-80" as="targetPoint" />
          </mxGeometry>
        </mxCell>
        <mxCell id="H4jBHMgdEXg4xku45v8j-27" value="" style="endArrow=open;startArrow=none;endFill=0;startFill=0;endSize=8;html=1;verticalAlign=bottom;labelBackgroundColor=none;strokeWidth=1;rounded=0;exitX=0.75;exitY=0.1;exitDx=0;exitDy=0;exitPerimeter=0;entryX=0;entryY=1;entryDx=0;entryDy=0;" edge="1" parent="1" source="H4jBHMgdEXg4xku45v8j-1" target="H4jBHMgdEXg4xku45v8j-9">
          <mxGeometry width="160" relative="1" as="geometry">
            <mxPoint x="-140" y="90" as="sourcePoint" />
            <mxPoint x="420" y="-40" as="targetPoint" />
          </mxGeometry>
        </mxCell>
        <mxCell id="H4jBHMgdEXg4xku45v8j-28" value="" style="endArrow=open;startArrow=none;endFill=0;startFill=0;endSize=8;html=1;verticalAlign=bottom;labelBackgroundColor=none;strokeWidth=1;rounded=0;exitX=0.5;exitY=0;exitDx=0;exitDy=0;exitPerimeter=0;entryX=1;entryY=0.5;entryDx=0;entryDy=0;" edge="1" parent="1" source="H4jBHMgdEXg4xku45v8j-5" target="H4jBHMgdEXg4xku45v8j-8">
          <mxGeometry width="160" relative="1" as="geometry">
            <mxPoint x="1078" y="86" as="sourcePoint" />
            <mxPoint x="610" y="-40" as="targetPoint" />
          </mxGeometry>
        </mxCell>
        <mxCell id="H4jBHMgdEXg4xku45v8j-29" value="&lt;font style=&quot;font-size: 18px;&quot;&gt;Soát vé&lt;/font&gt;" style="ellipse;whiteSpace=wrap;html=1;" vertex="1" parent="1">
          <mxGeometry x="140" y="120" width="140" height="80" as="geometry" />
        </mxCell>
        <mxCell id="H4jBHMgdEXg4xku45v8j-30" value="" style="endArrow=open;startArrow=none;endFill=0;startFill=0;endSize=8;html=1;verticalAlign=bottom;labelBackgroundColor=none;strokeWidth=1;rounded=0;entryX=0.021;entryY=0.325;entryDx=0;entryDy=0;entryPerimeter=0;" edge="1" parent="1" source="H4jBHMgdEXg4xku45v8j-1" target="H4jBHMgdEXg4xku45v8j-29">
          <mxGeometry width="160" relative="1" as="geometry">
            <mxPoint x="-140" y="90" as="sourcePoint" />
            <mxPoint x="420" y="-40" as="targetPoint" />
          </mxGeometry>
        </mxCell>
        <mxCell id="H4jBHMgdEXg4xku45v8j-31" value="&amp;lt;&amp;lt;Extend&lt;span style=&quot;background-color: transparent; color: light-dark(rgb(0, 0, 0), rgb(255, 255, 255));&quot;&gt;&amp;gt;&amp;gt;&lt;/span&gt;" style="endArrow=open;startArrow=none;endFill=0;startFill=0;endSize=8;html=1;verticalAlign=bottom;dashed=1;labelBackgroundColor=none;rounded=0;exitX=0;exitY=0.5;exitDx=0;exitDy=0;entryX=1;entryY=0.5;entryDx=0;entryDy=0;" edge="1" parent="1" source="H4jBHMgdEXg4xku45v8j-23" target="H4jBHMgdEXg4xku45v8j-29">
          <mxGeometry width="160" relative="1" as="geometry">
            <mxPoint x="515" as="sourcePoint" />
            <mxPoint x="270" y="220" as="targetPoint" />
          </mxGeometry>
        </mxCell>
        <mxCell id="H4jBHMgdEXg4xku45v8j-32" value="&lt;span style=&quot;font-size: 18px;&quot;&gt;Đăng kí tài khoản&lt;/span&gt;" style="ellipse;whiteSpace=wrap;html=1;" vertex="1" parent="1">
          <mxGeometry x="810" y="-830" width="190" height="80" as="geometry" />
        </mxCell>
        <mxCell id="H4jBHMgdEXg4xku45v8j-34" value="" style="endArrow=open;startArrow=none;endFill=0;startFill=0;endSize=8;html=1;verticalAlign=bottom;labelBackgroundColor=none;strokeWidth=1;rounded=0;entryX=1;entryY=0.5;entryDx=0;entryDy=0;" edge="1" parent="1" target="H4jBHMgdEXg4xku45v8j-32">
          <mxGeometry width="160" relative="1" as="geometry">
            <mxPoint x="1210" y="-50" as="sourcePoint" />
            <mxPoint x="610" y="-40" as="targetPoint" />
          </mxGeometry>
        </mxCell>
        <mxCell id="H4jBHMgdEXg4xku45v8j-39" value="" style="endArrow=open;startArrow=none;endFill=0;startFill=0;endSize=8;html=1;verticalAlign=bottom;labelBackgroundColor=none;strokeWidth=1;rounded=0;entryX=1;entryY=0.5;entryDx=0;entryDy=0;exitX=0;exitY=0.3333333333333333;exitDx=0;exitDy=0;exitPerimeter=0;" edge="1" parent="1" source="H4jBHMgdEXg4xku45v8j-5" target="H4jBHMgdEXg4xku45v8j-23">
          <mxGeometry width="160" relative="1" as="geometry">
            <mxPoint x="1050" y="90" as="sourcePoint" />
            <mxPoint x="610" y="-40" as="targetPoint" />
          </mxGeometry>
        </mxCell>
        <mxCell id="H4jBHMgdEXg4xku45v8j-40" value="&lt;span style=&quot;font-size: 18px;&quot;&gt;Nạp tiền vào tài khoản&lt;/span&gt;" style="ellipse;whiteSpace=wrap;html=1;" vertex="1" parent="1">
          <mxGeometry x="740" y="-650" width="241" height="80" as="geometry" />
        </mxCell>
        <mxCell id="H4jBHMgdEXg4xku45v8j-41" value="" style="endArrow=open;startArrow=none;endFill=0;startFill=0;endSize=8;html=1;verticalAlign=bottom;labelBackgroundColor=none;strokeWidth=1;rounded=0;entryX=1;entryY=0.5;entryDx=0;entryDy=0;" edge="1" parent="1" target="H4jBHMgdEXg4xku45v8j-40">
          <mxGeometry width="160" relative="1" as="geometry">
            <mxPoint x="1200" y="-60" as="sourcePoint" />
            <mxPoint x="635" y="-380" as="targetPoint" />
          </mxGeometry>
        </mxCell>
        <mxCell id="H4jBHMgdEXg4xku45v8j-42" value="&lt;span style=&quot;font-size: 18px;&quot;&gt;Tài khoản&lt;/span&gt;" style="ellipse;whiteSpace=wrap;html=1;" vertex="1" parent="1">
          <mxGeometry x="422.25" y="-640" width="165.5" height="80" as="geometry" />
        </mxCell>
        <mxCell id="H4jBHMgdEXg4xku45v8j-44" value="&amp;lt;&amp;lt;Include&lt;span style=&quot;background-color: light-dark(#ffffff, var(--ge-dark-color, #121212)); color: light-dark(rgb(0, 0, 0), rgb(255, 255, 255));&quot;&gt;&amp;gt;&amp;gt;&lt;/span&gt;" style="endArrow=open;endSize=12;dashed=1;html=1;rounded=0;exitX=0.5;exitY=1;exitDx=0;exitDy=0;entryX=0.5;entryY=0;entryDx=0;entryDy=0;" edge="1" parent="1" source="H4jBHMgdEXg4xku45v8j-42" target="H4jBHMgdEXg4xku45v8j-8">
          <mxGeometry width="160" relative="1" as="geometry">
            <mxPoint x="454" y="-210" as="sourcePoint" />
            <mxPoint x="250" y="-210" as="targetPoint" />
          </mxGeometry>
        </mxCell>
        <mxCell id="H4jBHMgdEXg4xku45v8j-47" value="&amp;lt;&amp;lt;Extend&lt;span style=&quot;background-color: light-dark(#ffffff, var(--ge-dark-color, #121212)); color: light-dark(rgb(0, 0, 0), rgb(255, 255, 255));&quot;&gt;&amp;gt;&amp;gt;&lt;/span&gt;" style="endArrow=open;endSize=12;dashed=1;html=1;rounded=0;exitX=0;exitY=0.5;exitDx=0;exitDy=0;entryX=0.973;entryY=0.262;entryDx=0;entryDy=0;entryPerimeter=0;" edge="1" parent="1" source="H4jBHMgdEXg4xku45v8j-40" target="H4jBHMgdEXg4xku45v8j-42">
          <mxGeometry width="160" relative="1" as="geometry">
            <mxPoint x="514" y="-574" as="sourcePoint" />
            <mxPoint x="515" y="-420" as="targetPoint" />
          </mxGeometry>
        </mxCell>
        <mxCell id="H4jBHMgdEXg4xku45v8j-48" value="&lt;font style=&quot;font-size: 18px;&quot;&gt;Báo cáo doanh thu&lt;/font&gt;" style="ellipse;whiteSpace=wrap;html=1;" vertex="1" parent="1">
          <mxGeometry x="100" y="-90" width="190" height="80" as="geometry" />
        </mxCell>
        <mxCell id="H4jBHMgdEXg4xku45v8j-49" value="&amp;lt;&amp;lt;Extend&lt;span style=&quot;background-color: light-dark(#ffffff, var(--ge-dark-color, #121212)); color: light-dark(rgb(0, 0, 0), rgb(255, 255, 255));&quot;&gt;&amp;gt;&amp;gt;&lt;/span&gt;" style="endArrow=open;endSize=12;dashed=1;html=1;rounded=0;exitX=0;exitY=0.5;exitDx=0;exitDy=0;entryX=1;entryY=0.5;entryDx=0;entryDy=0;" edge="1" parent="1" source="H4jBHMgdEXg4xku45v8j-6" target="H4jBHMgdEXg4xku45v8j-48">
          <mxGeometry width="160" relative="1" as="geometry">
            <mxPoint x="454" y="-210" as="sourcePoint" />
            <mxPoint x="250" y="-210" as="targetPoint" />
          </mxGeometry>
        </mxCell>
        <mxCell id="H4jBHMgdEXg4xku45v8j-50" value="" style="endArrow=open;startArrow=none;endFill=0;startFill=0;endSize=8;html=1;verticalAlign=bottom;labelBackgroundColor=none;strokeWidth=1;rounded=0;exitX=1;exitY=0.3333333333333333;exitDx=0;exitDy=0;exitPerimeter=0;entryX=0;entryY=0.5;entryDx=0;entryDy=0;" edge="1" parent="1" source="H4jBHMgdEXg4xku45v8j-1" target="H4jBHMgdEXg4xku45v8j-48">
          <mxGeometry width="160" relative="1" as="geometry">
            <mxPoint x="-257" y="-64" as="sourcePoint" />
            <mxPoint x="88" y="-182" as="targetPoint" />
          </mxGeometry>
        </mxCell>
        <mxCell id="H4jBHMgdEXg4xku45v8j-51" value="&lt;span style=&quot;font-size: 18px;&quot;&gt;Theo dõi giao dịch&lt;/span&gt;" style="ellipse;whiteSpace=wrap;html=1;" vertex="1" parent="1">
          <mxGeometry x="740" y="-520" width="210" height="80" as="geometry" />
        </mxCell>
        <mxCell id="H4jBHMgdEXg4xku45v8j-52" value="" style="endArrow=open;startArrow=none;endFill=0;startFill=0;endSize=8;html=1;verticalAlign=bottom;labelBackgroundColor=none;strokeWidth=1;rounded=0;entryX=0.962;entryY=0.738;entryDx=0;entryDy=0;entryPerimeter=0;" edge="1" parent="1" target="H4jBHMgdEXg4xku45v8j-51">
          <mxGeometry width="160" relative="1" as="geometry">
            <mxPoint x="1180" y="-70" as="sourcePoint" />
            <mxPoint x="1041" y="-710" as="targetPoint" />
          </mxGeometry>
        </mxCell>
        <mxCell id="H4jBHMgdEXg4xku45v8j-53" value="&amp;lt;&amp;lt;Extend&lt;span style=&quot;background-color: light-dark(#ffffff, var(--ge-dark-color, #121212)); color: light-dark(rgb(0, 0, 0), rgb(255, 255, 255));&quot;&gt;&amp;gt;&amp;gt;&lt;/span&gt;" style="endArrow=open;endSize=12;dashed=1;html=1;rounded=0;exitX=0.019;exitY=0.288;exitDx=0;exitDy=0;entryX=0.971;entryY=0.638;entryDx=0;entryDy=0;entryPerimeter=0;exitPerimeter=0;" edge="1" parent="1" source="H4jBHMgdEXg4xku45v8j-51" target="H4jBHMgdEXg4xku45v8j-42">
          <mxGeometry width="160" relative="1" as="geometry">
            <mxPoint x="800" y="-710" as="sourcePoint" />
            <mxPoint x="593" y="-609" as="targetPoint" />
          </mxGeometry>
        </mxCell>
        <mxCell id="H4jBHMgdEXg4xku45v8j-54" value="&amp;lt;&amp;lt;Extend&lt;span style=&quot;background-color: light-dark(#ffffff, var(--ge-dark-color, #121212)); color: light-dark(rgb(0, 0, 0), rgb(255, 255, 255));&quot;&gt;&amp;gt;&amp;gt;&lt;/span&gt;" style="endArrow=open;endSize=12;dashed=1;html=1;rounded=0;exitX=0.021;exitY=0.688;exitDx=0;exitDy=0;entryX=0.687;entryY=0.05;entryDx=0;entryDy=0;entryPerimeter=0;exitPerimeter=0;" edge="1" parent="1" source="H4jBHMgdEXg4xku45v8j-32" target="H4jBHMgdEXg4xku45v8j-42">
          <mxGeometry width="160" relative="1" as="geometry">
            <mxPoint x="750" y="-600" as="sourcePoint" />
            <mxPoint x="593" y="-609" as="targetPoint" />
          </mxGeometry>
        </mxCell>
        <mxCell id="H4jBHMgdEXg4xku45v8j-90" style="edgeStyle=orthogonalEdgeStyle;rounded=0;orthogonalLoop=1;jettySize=auto;html=1;entryX=1;entryY=0.5;entryDx=0;entryDy=0;endArrow=ERmany;endFill=0;" edge="1" parent="1" source="H4jBHMgdEXg4xku45v8j-55" target="H4jBHMgdEXg4xku45v8j-65">
          <mxGeometry relative="1" as="geometry" />
        </mxCell>
        <mxCell id="H4jBHMgdEXg4xku45v8j-102" value="Mua" style="edgeLabel;html=1;align=center;verticalAlign=middle;resizable=0;points=[];" vertex="1" connectable="0" parent="H4jBHMgdEXg4xku45v8j-90">
          <mxGeometry x="-0.0247" y="-3" relative="1" as="geometry">
            <mxPoint as="offset" />
          </mxGeometry>
        </mxCell>
        <mxCell id="H4jBHMgdEXg4xku45v8j-55" value="Hanh khach" style="swimlane;fontStyle=0;childLayout=stackLayout;horizontal=1;startSize=26;horizontalStack=0;resizeParent=1;resizeParentMax=0;resizeLast=0;collapsible=1;marginBottom=0;align=center;fontSize=14;" vertex="1" parent="1">
          <mxGeometry x="1030" y="470" width="160" height="86" as="geometry" />
        </mxCell>
        <mxCell id="H4jBHMgdEXg4xku45v8j-56" value="Id_nguoi(FK)" style="text;strokeColor=none;fillColor=none;spacingLeft=4;spacingRight=4;overflow=hidden;rotatable=0;points=[[0,0.5],[1,0.5]];portConstraint=eastwest;fontSize=12;whiteSpace=wrap;html=1;" vertex="1" parent="H4jBHMgdEXg4xku45v8j-55">
          <mxGeometry y="26" width="160" height="30" as="geometry" />
        </mxCell>
        <mxCell id="H4jBHMgdEXg4xku45v8j-79" value="so_tai_khoan" style="text;strokeColor=none;fillColor=none;spacingLeft=4;spacingRight=4;overflow=hidden;rotatable=0;points=[[0,0.5],[1,0.5]];portConstraint=eastwest;fontSize=12;whiteSpace=wrap;html=1;" vertex="1" parent="H4jBHMgdEXg4xku45v8j-55">
          <mxGeometry y="56" width="160" height="30" as="geometry" />
        </mxCell>
        <mxCell id="H4jBHMgdEXg4xku45v8j-59" value="Nhan vien" style="swimlane;fontStyle=0;childLayout=stackLayout;horizontal=1;startSize=26;horizontalStack=0;resizeParent=1;resizeParentMax=0;resizeLast=0;collapsible=1;marginBottom=0;align=center;fontSize=14;" vertex="1" parent="1">
          <mxGeometry x="210" y="550" width="160" height="86" as="geometry" />
        </mxCell>
        <mxCell id="H4jBHMgdEXg4xku45v8j-60" value="Id_nguoi(FK)" style="text;strokeColor=none;fillColor=none;spacingLeft=4;spacingRight=4;overflow=hidden;rotatable=0;points=[[0,0.5],[1,0.5]];portConstraint=eastwest;fontSize=12;whiteSpace=wrap;html=1;" vertex="1" parent="H4jBHMgdEXg4xku45v8j-59">
          <mxGeometry y="26" width="160" height="30" as="geometry" />
        </mxCell>
        <mxCell id="H4jBHMgdEXg4xku45v8j-62" value="chuc_vu" style="text;strokeColor=none;fillColor=none;spacingLeft=4;spacingRight=4;overflow=hidden;rotatable=0;points=[[0,0.5],[1,0.5]];portConstraint=eastwest;fontSize=12;whiteSpace=wrap;html=1;" vertex="1" parent="H4jBHMgdEXg4xku45v8j-59">
          <mxGeometry y="56" width="160" height="30" as="geometry" />
        </mxCell>
        <mxCell id="H4jBHMgdEXg4xku45v8j-63" value="Ve" style="swimlane;fontStyle=0;childLayout=stackLayout;horizontal=1;startSize=26;horizontalStack=0;resizeParent=1;resizeParentMax=0;resizeLast=0;collapsible=1;marginBottom=0;align=center;fontSize=14;" vertex="1" parent="1">
          <mxGeometry x="800" y="585" width="160" height="206" as="geometry" />
        </mxCell>
        <mxCell id="H4jBHMgdEXg4xku45v8j-64" value="Id_ve(PK)" style="text;strokeColor=none;fillColor=none;spacingLeft=4;spacingRight=4;overflow=hidden;rotatable=0;points=[[0,0.5],[1,0.5]];portConstraint=eastwest;fontSize=12;whiteSpace=wrap;html=1;" vertex="1" parent="H4jBHMgdEXg4xku45v8j-63">
          <mxGeometry y="26" width="160" height="30" as="geometry" />
        </mxCell>
        <mxCell id="H4jBHMgdEXg4xku45v8j-66" value="ngay_gio(PK)" style="text;strokeColor=none;fillColor=none;spacingLeft=4;spacingRight=4;overflow=hidden;rotatable=0;points=[[0,0.5],[1,0.5]];portConstraint=eastwest;fontSize=12;whiteSpace=wrap;html=1;" vertex="1" parent="H4jBHMgdEXg4xku45v8j-63">
          <mxGeometry y="56" width="160" height="30" as="geometry" />
        </mxCell>
        <mxCell id="H4jBHMgdEXg4xku45v8j-65" value="Id_hanhkhach(FK)" style="text;strokeColor=none;fillColor=none;spacingLeft=4;spacingRight=4;overflow=hidden;rotatable=0;points=[[0,0.5],[1,0.5]];portConstraint=eastwest;fontSize=12;whiteSpace=wrap;html=1;" vertex="1" parent="H4jBHMgdEXg4xku45v8j-63">
          <mxGeometry y="86" width="160" height="30" as="geometry" />
        </mxCell>
        <mxCell id="H4jBHMgdEXg4xku45v8j-82" value="trang_thai" style="text;strokeColor=none;fillColor=none;spacingLeft=4;spacingRight=4;overflow=hidden;rotatable=0;points=[[0,0.5],[1,0.5]];portConstraint=eastwest;fontSize=12;whiteSpace=wrap;html=1;" vertex="1" parent="H4jBHMgdEXg4xku45v8j-63">
          <mxGeometry y="116" width="160" height="30" as="geometry" />
        </mxCell>
        <mxCell id="H4jBHMgdEXg4xku45v8j-91" value="ga_di(FK)" style="text;strokeColor=none;fillColor=none;spacingLeft=4;spacingRight=4;overflow=hidden;rotatable=0;points=[[0,0.5],[1,0.5]];portConstraint=eastwest;fontSize=12;whiteSpace=wrap;html=1;" vertex="1" parent="H4jBHMgdEXg4xku45v8j-63">
          <mxGeometry y="146" width="160" height="30" as="geometry" />
        </mxCell>
        <mxCell id="H4jBHMgdEXg4xku45v8j-92" value="ga_den(FK)" style="text;strokeColor=none;fillColor=none;spacingLeft=4;spacingRight=4;overflow=hidden;rotatable=0;points=[[0,0.5],[1,0.5]];portConstraint=eastwest;fontSize=12;whiteSpace=wrap;html=1;" vertex="1" parent="H4jBHMgdEXg4xku45v8j-63">
          <mxGeometry y="176" width="160" height="30" as="geometry" />
        </mxCell>
        <mxCell id="H4jBHMgdEXg4xku45v8j-67" value="Giao dich" style="swimlane;fontStyle=0;childLayout=stackLayout;horizontal=1;startSize=26;horizontalStack=0;resizeParent=1;resizeParentMax=0;resizeLast=0;collapsible=1;marginBottom=0;align=center;fontSize=14;" vertex="1" parent="1">
          <mxGeometry x="480" y="550" width="160" height="146" as="geometry" />
        </mxCell>
        <mxCell id="H4jBHMgdEXg4xku45v8j-68" value="Id_nhanvien(FK, PK)" style="text;strokeColor=none;fillColor=none;spacingLeft=4;spacingRight=4;overflow=hidden;rotatable=0;points=[[0,0.5],[1,0.5]];portConstraint=eastwest;fontSize=12;whiteSpace=wrap;html=1;" vertex="1" parent="H4jBHMgdEXg4xku45v8j-67">
          <mxGeometry y="26" width="160" height="30" as="geometry" />
        </mxCell>
        <mxCell id="H4jBHMgdEXg4xku45v8j-69" value="Id_ve(FK, PK)" style="text;strokeColor=none;fillColor=none;spacingLeft=4;spacingRight=4;overflow=hidden;rotatable=0;points=[[0,0.5],[1,0.5]];portConstraint=eastwest;fontSize=12;whiteSpace=wrap;html=1;" vertex="1" parent="H4jBHMgdEXg4xku45v8j-67">
          <mxGeometry y="56" width="160" height="30" as="geometry" />
        </mxCell>
        <mxCell id="H4jBHMgdEXg4xku45v8j-70" value="ngay_gio" style="text;strokeColor=none;fillColor=none;spacingLeft=4;spacingRight=4;overflow=hidden;rotatable=0;points=[[0,0.5],[1,0.5]];portConstraint=eastwest;fontSize=12;whiteSpace=wrap;html=1;" vertex="1" parent="H4jBHMgdEXg4xku45v8j-67">
          <mxGeometry y="86" width="160" height="30" as="geometry" />
        </mxCell>
        <mxCell id="H4jBHMgdEXg4xku45v8j-80" value="so_tien" style="text;strokeColor=none;fillColor=none;spacingLeft=4;spacingRight=4;overflow=hidden;rotatable=0;points=[[0,0.5],[1,0.5]];portConstraint=eastwest;fontSize=12;whiteSpace=wrap;html=1;" vertex="1" parent="H4jBHMgdEXg4xku45v8j-67">
          <mxGeometry y="116" width="160" height="30" as="geometry" />
        </mxCell>
        <mxCell id="H4jBHMgdEXg4xku45v8j-71" value="Ga" style="swimlane;fontStyle=0;childLayout=stackLayout;horizontal=1;startSize=26;horizontalStack=0;resizeParent=1;resizeParentMax=0;resizeLast=0;collapsible=1;marginBottom=0;align=center;fontSize=14;" vertex="1" parent="1">
          <mxGeometry x="800" y="915" width="160" height="116" as="geometry" />
        </mxCell>
        <mxCell id="H4jBHMgdEXg4xku45v8j-72" value="Id(PK)" style="text;strokeColor=none;fillColor=none;spacingLeft=4;spacingRight=4;overflow=hidden;rotatable=0;points=[[0,0.5],[1,0.5]];portConstraint=eastwest;fontSize=12;whiteSpace=wrap;html=1;" vertex="1" parent="H4jBHMgdEXg4xku45v8j-71">
          <mxGeometry y="26" width="160" height="30" as="geometry" />
        </mxCell>
        <mxCell id="H4jBHMgdEXg4xku45v8j-73" value="ten" style="text;strokeColor=none;fillColor=none;spacingLeft=4;spacingRight=4;overflow=hidden;rotatable=0;points=[[0,0.5],[1,0.5]];portConstraint=eastwest;fontSize=12;whiteSpace=wrap;html=1;" vertex="1" parent="H4jBHMgdEXg4xku45v8j-71">
          <mxGeometry y="56" width="160" height="30" as="geometry" />
        </mxCell>
        <mxCell id="H4jBHMgdEXg4xku45v8j-74" value="vi_tri" style="text;strokeColor=none;fillColor=none;spacingLeft=4;spacingRight=4;overflow=hidden;rotatable=0;points=[[0,0.5],[1,0.5]];portConstraint=eastwest;fontSize=12;whiteSpace=wrap;html=1;" vertex="1" parent="H4jBHMgdEXg4xku45v8j-71">
          <mxGeometry y="86" width="160" height="30" as="geometry" />
        </mxCell>
        <mxCell id="H4jBHMgdEXg4xku45v8j-83" value="Nguoi" style="swimlane;fontStyle=0;childLayout=stackLayout;horizontal=1;startSize=26;horizontalStack=0;resizeParent=1;resizeParentMax=0;resizeLast=0;collapsible=1;marginBottom=0;align=center;fontSize=14;" vertex="1" parent="1">
          <mxGeometry x="500" y="300" width="160" height="116" as="geometry" />
        </mxCell>
        <mxCell id="H4jBHMgdEXg4xku45v8j-84" value="Id(PK)" style="text;strokeColor=none;fillColor=none;spacingLeft=4;spacingRight=4;overflow=hidden;rotatable=0;points=[[0,0.5],[1,0.5]];portConstraint=eastwest;fontSize=12;whiteSpace=wrap;html=1;" vertex="1" parent="H4jBHMgdEXg4xku45v8j-83">
          <mxGeometry y="26" width="160" height="30" as="geometry" />
        </mxCell>
        <mxCell id="H4jBHMgdEXg4xku45v8j-85" value="ten" style="text;strokeColor=none;fillColor=none;spacingLeft=4;spacingRight=4;overflow=hidden;rotatable=0;points=[[0,0.5],[1,0.5]];portConstraint=eastwest;fontSize=12;whiteSpace=wrap;html=1;" vertex="1" parent="H4jBHMgdEXg4xku45v8j-83">
          <mxGeometry y="56" width="160" height="30" as="geometry" />
        </mxCell>
        <mxCell id="H4jBHMgdEXg4xku45v8j-86" value="email" style="text;strokeColor=none;fillColor=none;spacingLeft=4;spacingRight=4;overflow=hidden;rotatable=0;points=[[0,0.5],[1,0.5]];portConstraint=eastwest;fontSize=12;whiteSpace=wrap;html=1;" vertex="1" parent="H4jBHMgdEXg4xku45v8j-83">
          <mxGeometry y="86" width="160" height="30" as="geometry" />
        </mxCell>
        <mxCell id="H4jBHMgdEXg4xku45v8j-87" style="edgeStyle=orthogonalEdgeStyle;rounded=0;orthogonalLoop=1;jettySize=auto;html=1;entryX=0.5;entryY=0;entryDx=0;entryDy=0;endArrow=block;endFill=0;" edge="1" parent="1" source="H4jBHMgdEXg4xku45v8j-84" target="H4jBHMgdEXg4xku45v8j-59">
          <mxGeometry relative="1" as="geometry" />
        </mxCell>
        <mxCell id="H4jBHMgdEXg4xku45v8j-89" style="edgeStyle=orthogonalEdgeStyle;rounded=0;orthogonalLoop=1;jettySize=auto;html=1;exitX=1;exitY=0.5;exitDx=0;exitDy=0;endArrow=block;endFill=0;" edge="1" parent="1" source="H4jBHMgdEXg4xku45v8j-84" target="H4jBHMgdEXg4xku45v8j-55">
          <mxGeometry relative="1" as="geometry" />
        </mxCell>
        <mxCell id="H4jBHMgdEXg4xku45v8j-93" style="edgeStyle=orthogonalEdgeStyle;rounded=0;orthogonalLoop=1;jettySize=auto;html=1;entryX=0;entryY=0.5;entryDx=0;entryDy=0;endArrow=ERmany;endFill=0;" edge="1" parent="1" source="H4jBHMgdEXg4xku45v8j-72" target="H4jBHMgdEXg4xku45v8j-91">
          <mxGeometry relative="1" as="geometry">
            <Array as="points">
              <mxPoint x="770" y="956" />
              <mxPoint x="770" y="746" />
            </Array>
          </mxGeometry>
        </mxCell>
        <mxCell id="H4jBHMgdEXg4xku45v8j-100" value="Xuất phát" style="edgeLabel;html=1;align=center;verticalAlign=middle;resizable=0;points=[];" vertex="1" connectable="0" parent="H4jBHMgdEXg4xku45v8j-93">
          <mxGeometry x="-0.0694" y="3" relative="1" as="geometry">
            <mxPoint as="offset" />
          </mxGeometry>
        </mxCell>
        <mxCell id="H4jBHMgdEXg4xku45v8j-95" style="edgeStyle=orthogonalEdgeStyle;rounded=0;orthogonalLoop=1;jettySize=auto;html=1;entryX=1;entryY=0.5;entryDx=0;entryDy=0;endArrow=ERmany;endFill=0;" edge="1" parent="1" source="H4jBHMgdEXg4xku45v8j-72" target="H4jBHMgdEXg4xku45v8j-92">
          <mxGeometry relative="1" as="geometry">
            <Array as="points">
              <mxPoint x="990" y="956" />
              <mxPoint x="990" y="776" />
            </Array>
          </mxGeometry>
        </mxCell>
        <mxCell id="H4jBHMgdEXg4xku45v8j-101" value="Xuống tàu" style="edgeLabel;html=1;align=center;verticalAlign=middle;resizable=0;points=[];" vertex="1" connectable="0" parent="H4jBHMgdEXg4xku45v8j-95">
          <mxGeometry x="0.0545" relative="1" as="geometry">
            <mxPoint as="offset" />
          </mxGeometry>
        </mxCell>
        <mxCell id="H4jBHMgdEXg4xku45v8j-96" style="edgeStyle=orthogonalEdgeStyle;rounded=0;orthogonalLoop=1;jettySize=auto;html=1;endArrow=none;endFill=0;startFill=0;" edge="1" parent="1" source="H4jBHMgdEXg4xku45v8j-60" target="H4jBHMgdEXg4xku45v8j-68">
          <mxGeometry relative="1" as="geometry" />
        </mxCell>
        <mxCell id="H4jBHMgdEXg4xku45v8j-98" value="Thực hiện" style="edgeLabel;html=1;align=center;verticalAlign=middle;resizable=0;points=[];" vertex="1" connectable="0" parent="H4jBHMgdEXg4xku45v8j-96">
          <mxGeometry x="0.0145" y="-2" relative="1" as="geometry">
            <mxPoint as="offset" />
          </mxGeometry>
        </mxCell>
        <mxCell id="H4jBHMgdEXg4xku45v8j-97" style="edgeStyle=orthogonalEdgeStyle;rounded=0;orthogonalLoop=1;jettySize=auto;html=1;entryX=1;entryY=0.5;entryDx=0;entryDy=0;endArrow=ERmany;endFill=0;" edge="1" parent="1" source="H4jBHMgdEXg4xku45v8j-64" target="H4jBHMgdEXg4xku45v8j-69">
          <mxGeometry relative="1" as="geometry" />
        </mxCell>
        <mxCell id="H4jBHMgdEXg4xku45v8j-99" value="Than toán" style="edgeLabel;html=1;align=center;verticalAlign=middle;resizable=0;points=[];" vertex="1" connectable="0" parent="H4jBHMgdEXg4xku45v8j-97">
          <mxGeometry x="-0.0061" y="1" relative="1" as="geometry">
            <mxPoint as="offset" />
          </mxGeometry>
        </mxCell>
      </root>
    </mxGraphModel>
  </diagram>
</mxfile>
